<svg xmlns="http://www.w3.org/2000/svg" width="1200" height="700" viewBox="0 0 1200 700" fill="none">
  <defs>
    <linearGradient id="ice" x1="0" y1="0" x2="1" y2="1">
      <stop offset="0%" stop-color="#d4ecff"/>
      <stop offset="100%" stop-color="#9ad4ff"/>
    </linearGradient>
    <linearGradient id="bar" x1="0" y1="0" x2="1" y2="1">
      <stop offset="0%" stop-color="#ff6230"/>
      <stop offset="100%" stop-color="#ff9d2a"/>
    </linearGradient>
  </defs>
  <rect x="40" y="50" width="1120" height="600" rx="180" fill="url(#ice)" stroke="#7fb6e2" stroke-width="12"/>
  <rect x="593" y="70" width="14" height="560" rx="7" fill="#e53935" fill-opacity=".6"/>
  <circle cx="600" cy="350" r="130" stroke="#2e6fa7" stroke-opacity=".5" stroke-width="12"/>
  <circle cx="260" cy="220" r="84" stroke="#e54646" stroke-opacity=".5" stroke-width="10"/>
  <circle cx="260" cy="480" r="84" stroke="#e54646" stroke-opacity=".5" stroke-width="10"/>
  <circle cx="940" cy="220" r="84" stroke="#e54646" stroke-opacity=".5" stroke-width="10"/>
  <circle cx="940" cy="480" r="84" stroke="#e54646" stroke-opacity=".5" stroke-width="10"/>
  <rect x="108" y="285" width="130" height="130" rx="18" stroke="#f5f9ff" stroke-width="8"/>
  <rect x="962" y="285" width="130" height="130" rx="18" stroke="#f5f9ff" stroke-width="8"/>
  <path d="M460 575C502 525 540 505 599 505C658 505 702 528 741 575" stroke="#2e6fa7" stroke-opacity=".55" stroke-width="9" stroke-linecap="round"/>
  <g transform="translate(905 65)">
    <rect width="235" height="105" rx="22" fill="#0f2f54" opacity=".88"/>
    <text x="22" y="43" fill="#dff2ff" font-family="Arial, sans-serif" font-size="24" font-weight="700">SLAPSHOT</text>
    <text x="22" y="77" fill="#9bd9ff" font-family="Arial, sans-serif" font-size="22">SNAPSHOT</text>
  </g>
  <g transform="translate(80 540)">
    <rect width="310" height="70" rx="35" fill="url(#bar)"/>
    <text x="28" y="44" fill="#ffffff" font-family="Arial, sans-serif" font-size="26" font-weight="700">Family Hockey Hub</text>
  </g>
</svg>
